<svg width="34" height="34" viewBox="0 0 34 34" fill="none" xmlns="http://www.w3.org/2000/svg">
<path d="M16.7869 2.44092C24.4596 2.44092 30.6675 8.91872 30.6675 16.9129C30.6675 24.907 24.4596 31.3969 16.7869 31.3969C9.11427 31.3969 2.90637 24.9191 2.90637 16.925C2.90637 8.93085 9.11427 2.44092 16.7869 2.44092Z" fill="#E7BEB1"/>
<path d="M16.7879 32.4282C8.5805 32.4282 1.90759 25.4773 1.90759 16.9251C1.90759 8.36081 8.5805 1.40991 16.7879 1.40991C24.9954 1.40991 31.6683 8.36081 31.6683 16.913C31.6683 25.4651 24.9954 32.4282 16.7879 32.4282ZM29.3316 19.0358C28.9015 18.8903 25.4023 17.8106 21.4148 18.4657C23.0772 23.2209 23.7515 27.1028 23.8794 27.9034C26.7392 25.9018 28.7736 22.7236 29.3316 19.0358ZM21.7519 29.1286C21.5659 27.9641 20.8219 23.9124 19.0432 19.0844C19.02 19.0965 18.9851 19.1086 18.9619 19.1086C11.7891 21.7167 9.21989 26.8966 8.98738 27.3818C11.1381 29.1286 13.8467 30.1718 16.7879 30.1718C18.5434 30.184 20.229 29.8079 21.7519 29.1286ZM7.34822 25.7927C7.63885 25.2832 11.1264 19.2663 17.6831 17.0464C17.8458 16.9858 18.0202 16.9372 18.183 16.8887C17.8691 16.1366 17.5203 15.3845 17.1483 14.6445C10.8009 16.6218 4.63953 16.5369 4.08152 16.5248C4.08152 16.6582 4.06989 16.7917 4.06989 16.9251C4.08152 20.3338 5.3138 23.4393 7.34822 25.7927ZM4.3489 14.22C4.91854 14.2321 10.1499 14.2563 16.1021 12.6066C13.9979 8.70047 11.7193 5.42518 11.3938 4.95208C7.82486 6.69891 5.17429 10.1198 4.3489 14.22ZM13.8119 4.05441C14.1606 4.53964 16.4741 7.81493 18.555 11.8059C23.0772 10.0349 24.9838 7.3661 25.2163 7.02643C22.9726 4.95208 20.0198 3.69049 16.7879 3.69049C15.7649 3.69049 14.7651 3.82393 13.8119 4.05441ZM26.6229 8.55491C26.3555 8.93096 24.2281 11.7817 19.5315 13.7832C19.8221 14.414 20.1128 15.057 20.3801 15.6999C20.4732 15.9304 20.5662 16.1609 20.6592 16.3792C24.8908 15.8212 29.0875 16.7189 29.506 16.8038C29.4711 13.6862 28.4016 10.8112 26.6229 8.55491Z" fill="#00A884"/>
</svg>
