<svg width="25" height="24" viewBox="0 0 25 24" fill="none" xmlns="http://www.w3.org/2000/svg">
<path fill-rule="evenodd" clip-rule="evenodd" d="M8.58325 3.75L19.8333 3.75C20.0322 3.75 20.2229 3.82902 20.3636 3.96967C20.5042 4.11032 20.5833 4.30109 20.5833 4.5V15.75C20.5833 16.1642 20.2475 16.5 19.8333 16.5C19.419 16.5 19.0833 16.1642 19.0833 15.75V6.31066L5.36358 20.0303C5.07069 20.3232 4.59582 20.3232 4.30292 20.0303C4.01003 19.7374 4.01003 19.2626 4.30292 18.9697L18.0226 5.25L8.58325 5.25C8.16904 5.25 7.83325 4.91421 7.83325 4.5C7.83325 4.08579 8.16904 3.75 8.58325 3.75Z" fill="#00A884"/>
</svg>
