<svg width="29" height="28" viewBox="0 0 29 28" fill="none" xmlns="http://www.w3.org/2000/svg">
<path fill-rule="evenodd" clip-rule="evenodd" d="M10.125 4.375L23.25 4.375C23.4821 4.375 23.7046 4.46719 23.8687 4.63128C24.0328 4.79538 24.125 5.01794 24.125 5.25V18.375C24.125 18.8582 23.7332 19.25 23.25 19.25C22.7668 19.25 22.375 18.8582 22.375 18.375V7.36244L6.36872 23.3687C6.02701 23.7104 5.47299 23.7104 5.13128 23.3687C4.78957 23.027 4.78957 22.473 5.13128 22.1313L21.1376 6.125L10.125 6.125C9.64175 6.125 9.25 5.73325 9.25 5.25C9.25 4.76675 9.64175 4.375 10.125 4.375Z" fill="#00A884"/>
</svg>
